PathFileType	4	(X/Y/Z)	C:/Users/beibeiliu/ov580/test_trc/User2\sequence.25_training_dense_left.trc
DataRate	CameraRate	NumFrames	NumMarkers	Units	OrigDataRate	OrigDataStartFrame	OrigNumFrames
120	120	13	19	mm	120	30	118
Frame#	Time	ThumbCMC			ThumbMCP			ThumbIP			ThumbTip			IndexMCP			IndexPIP			IndexTip			MiddleMCP			MiddlePIP			MiddleTip			RingMCP			RingPIP			RingTip			PinkyMCP			PinkyPIP			PinkyTip			BackHand1			BackHand2			BackHand3	
		X0	Y0	Z0	X1	Y1	Z1	X2	Y2	Z2	X3	Y3	Z3	X4	Y4	Z4	X5	Y5	Z5	X6	Y6	Z6	X7	Y7	Z7	X8	Y8	Z8	X9	Y9	Z9	X10	Y10	Z10	X11	Y11	Z11	X12	Y12	Z12	X13	Y13	Z13	X14	Y14	Z14	X15	Y15	Z15	X16	Y16	Z16	X17	Y17	Z17	X18	Y18	Z18	
29	0.241667	-302.458	52.5584	0.834766	-303.787	66.4992	-25.5719	-311.389	83.0263	-55.8596	-308.493	96.3247	-77.1353	-251.208	55.9638	-68.7152	-232.409	83.8637	-62.8481	-245.82	85.5994	-26.9365	-227.623	47.4659	-63.5051	-215.592	76.879	-46.0379	-242.486	69.0189	-14.9735	-213.078	43.394	-50.9779	-206.071	69.1469	-35.6263	-227.204	62.3082	-8.1479	-210.08	16.9442	-39.4997	-190.235	24.6162	-59.8048	-176.637	33.5843	-78.2198	-254.78	3.93894	-13.4218	-268.765	-2.22416	14.5272	-288.801	17.305	-11.0132	
30	0.25	-301.788	39.3003	-4.01238	-313.941	52.2044	-30.0887	-317.64	65.2961	-56.713	-322.67	77.0117	-80.8807	-255.231	57.3293	-72.9643	-239.426	80.4697	-61.8974	-255.65	75.0978	-25.0203	-231.543	44.6736	-63.3398	-221.903	77.0458	-46.7069	-244.766	65.1459	-17.1756	-213.542	44.7206	-54.3934	-209.989	71.263	-36.1264	-236.394	62.0206	-13.575	-205.579	17.6652	-41.4651	-189.811	26.6214	-58.3087	-174.921	35.5915	-82.2194	-245.578	-2.88376	-16.3435	-262.192	-8.8986	15.2105	-284.073	7.37605	-13.0263	
31	0.258333	-306.051	28.7145	-3.20007	-318.745	41.3552	-29.6833	-324.106	50.7803	-57.183	-335.399	62.2946	-78.3177	-256.645	41.39	-75.4868	-246.041	69.1314	-67.9746	-260.807	66.059	-33.5035	-235.174	34.8374	-70.7968	-227.726	64.8465	-54.7494	-251.877	56.3182	-23.9465	-216.266	28.1902	-56.8315	-212.282	56.8505	-49.1279	-236.114	52.7059	-19.8206	-208.418	3.37023	-40.6202	-190.886	10.132	-63.7275	-181.05	16.2659	-82.4047	-249.701	-13.1277	-16.7897	-265.51	-17.0558	14.9012	-289.236	-0.0689165	-15.2417	
32	0.266667	-312.815	22.551	-6.24762	-322.011	34.6252	-29.4243	-334.342	46.214	-58.4714	-339.992	55.746	-79.1307	-272.702	21.1475	-79.2477	-251.418	47.9959	-76.3827	-262.362	50.205	-41.5928	-246.824	10.4753	-74.206	-231.301	42.5692	-67.0439	-254.407	41.8919	-33.5432	-230.176	5.45066	-65.7704	-217.22	33.3688	-60.3939	-238.019	37.4007	-30.0025	-220.504	-19.2441	-45.6148	-208.596	-15.6556	-70.07	-194.461	-14.5426	-92.4209	-262.187	-27.6409	-18.9168	-277.504	-27.6522	14.0667	-295.707	-11.9118	-12.5691	
33	0.275	-327.903	19.1561	-8.26838	-333.742	29.8208	-33.7896	-345.9	40.1676	-64.8395	-351.309	50.3662	-80.8116	-287.878	-0.372732	-82.3445	-264.466	22.2301	-87.1009	-271.128	34.4944	-52.8791	-267.656	-10.3908	-81.8625	-246.702	16.6216	-78.8065	-262.289	25.9234	-43.9413	-250.314	-18.4494	-72.6052	-234.129	5.69516	-71.5087	-250.503	17.592	-39.2333	-243.261	-44.5543	-50.678	-232.399	-45.1737	-73.4037	-220.241	-52.403	-92.4335	-286.442	-38.8351	-19.6773	-296.038	-37.2608	10.8461	-315.992	-21.1217	-14.0202	
34	0.283333	-336.739	18.3013	-10.4398	-343.505	28.8154	-36.4703	-354.808	35.1923	-64.9613	-362.589	42.2537	-87.1601	-311.191	-16.3806	-83.6673	-282.393	2.28049	-93.106	-280.607	19.6251	-66.003	-290.412	-29.8772	-84.3936	-264.858	-4.56501	-84.8612	-279.042	10.9627	-50.0466	-272.78	-41.7235	-71.8404	-255.353	-14.6359	-79.7202	-265.382	2.42228	-47.8112	-269.071	-58.523	-42.5357	-259.296	-70.5321	-70.6672	-250.627	-77.6216	-93.1477	-306.428	-44.6534	-15.3459	-312.994	-36.9033	18.9406	-331.917	-23.0113	-10.6798	
35	0.291667	-343.921	22.8395	-11.3055	-352.098	24.8513	-41.1415	-363.024	28.8806	-68.1289	-372.132	36.0058	-90.6222	-329.859	-25.2791	-84.2579	-302.306	-8.06034	-99.8012	-294.544	10.8762	-74.8452	-306.95	-42.5632	-81.6961	-283.763	-17.1727	-89.9331	-289.952	4.61199	-57.7013	-291.581	-53.0889	-70.598	-271.97	-29.0319	-82.7166	-278.779	-7.77015	-56.243	-289.433	-70.3879	-42.5877	-282.132	-83.8051	-67.7219	-272.396	-91.2021	-87.6709	-318.694	-48.4835	-12.1348	-322.269	-35.9716	21.0002	-342.042	-18.5377	-6.25753	
36	0.3	-341.757	33.6231	-10.5087	-348.812	37.3222	-39.4216	-359.388	44.9003	-66.9905	-369.376	57.9301	-88.6204	-341.263	-19.0247	-81.3981	-315.877	-14.0284	-99.1662	-298.954	6.02909	-73.2944	-329.389	-37.6316	-79.5275	-299.883	-22.8594	-93.0413	-293.729	-3.19564	-57.2924	-316.264	-53.2552	-68.8532	-292.605	-40.2353	-84.6158	-291.414	-13.0781	-54.7581	-317.354	-68.5847	-43.7641	-315.016	-82.5707	-68.6389	-304.386	-92.0146	-93.8141	-333.796	-41.4186	-7.71105	-335.559	-28.4342	20.786	-350.551	-6.89612	-5.00913	
37	0.308333	-325.513	47.0939	-8.44359	-329.226	59.0062	-36.2511	-332.054	72.688	-62.1449	-334.255	87.5051	-84.1719	-347.355	4.91833	-83.9077	-320.191	0.149471	-97.5732	-300.107	12.3392	-70.785	-346.077	-17.3758	-77.1686	-312.118	-18.7557	-89.9441	-299.979	-4.63192	-54.833	-342.136	-37.9101	-69.8187	-312.003	-32.3046	-84.3654	-299.545	-17.0865	-51.2868	-349.38	-50.7822	-39.4103	-355.622	-65.5478	-68.2039	-351.466	-69.391	-94.4636	-352.941	-15.5986	-7.58218	-348.435	-12.4309	23.3176	-353.322	20.9078	-5.80385	
38	0.316667	-304.168	52.2149	-3.60197	-295.801	69.7481	-29.1814	-293.415	85.3887	-57.8964	-288.01	92.2709	-78.055	-342.543	33.5799	-77.8374	-318.57	16.3674	-96.5107	-298.89	10.9135	-66.9716	-350.945	13.8716	-77.4788	-322.531	-7.22168	-88.6901	-305.235	-0.231597	-51.0477	-357.742	-7.53934	-71.7456	-332.266	-20.7848	-84.9309	-310.783	-14.1106	-55.9248	-372.801	-17.9561	-41.8428	-386.543	-28.0828	-66.3055	-387.375	-36.7782	-97.1116	-358.381	7.69598	-6.02012	-349.315	14.9704	23.1305	-340.503	44.2671	-1.26184	
39	0.325	-285.203	50.0916	0.0935274	-273.007	60.8798	-23.4784	-262.328	79.676	-54.683	-252.18	90.3188	-76.1631	-327.912	49.2012	-78.4247	-315.136	28.6712	-94.6038	-294.422	14.5426	-64.6681	-346.665	32.1258	-76.5658	-324.643	6.1344	-87.2527	-307.237	1.23045	-54.5866	-357.497	19.5461	-68.6832	-339.532	-2.86321	-83.6906	-316.259	-8.07159	-54.1799	-377.048	12.4625	-39.9913	-392.741	11.785	-63.6655	-401.185	8.69221	-91.0735	-351.038	32.6303	-3.50789	-342.058	27.988	26.4711	-320.002	55.0631	4.31925	
40	0.333333	-261.832	44.3691	0.35817	-250.796	51.288	-23.7025	-234.646	64.4377	-50.5732	-220.146	70.2794	-69.577	-309.015	61.5651	-74.8447	-302.186	36.9667	-91.8719	-292.443	15.1432	-65.8694	-330.797	52.1143	-72.803	-321.506	22.407	-88.7866	-300.387	8.84093	-57.2077	-348.743	40.9786	-65.7119	-337.986	17.4306	-84.6511	-314.538	2.8626	-56.417	-362.918	39.6801	-35.3308	-381.746	46.0696	-56.873	-391.718	55.794	-79.9151	-339.696	47.0633	-2.67931	-327.252	39.9573	29.5346	-301.668	58.7683	7.9586	
41	0.341667	-246.69	32.5308	2.06308	-235.177	33.0979	-20.8013	-214.206	45.127	-52.1083	-202.775	48.0472	-70.7555	-286.076	60.0877	-71.5254	-288.832	36.9182	-93.0285	-284.483	10.8089	-67.8847	-313.009	55.4461	-73.0184	-309.697	24.0909	-89.3612	-297.613	4.43761	-55.3089	-333.605	48.1272	-63.9419	-325.979	23.782	-84.0331	-307.225	3.39441	-59.3484	-350.816	49.8784	-34.0133	-363.064	61.5253	-55.8402	-375.992	74.5037	-76.651	-319.244	51.2567	-1.09218	-308.523	42.3004	29.1549	-279.454	53.7466	8.8267	
